# xmcd
#
# Track frame offsets: 
#        300
#        29390
#        55028
#        78200
#        111323
#        134898
#        165409
#        186077
#        200567
#        215912
#        233261
#        255805
#        303612
#
# Disc length: 4417 seconds
#
# Revision: 3
# Processed by: cddbd v1.5.2PL0 Copyright (c) Steve Scherf et al.
# Submitted via: ExactAudioCopy v1.0b1
#
DISCID=b0113d0d
DTITLE=Blues Company - Keepin' The Blues Alive
DYEAR=2004
DGENRE=Blues
TTITLE0=It's Nice
TTITLE1=J.J.'s Jump
TTITLE2=Blue and Lonesome
TTITLE3=Over The City
TTITLE4=21st Century Blues
TTITLE5=Blues Is A Feeling
TTITLE6=Wait A Minute
TTITLE7=Havin' A Ball
TTITLE8=Jet Set Shuffle
TTITLE9=Hey Little Girl
TTITLE10=Same Old Feeling
TTITLE11=Listen What I Say
TTITLE12=Red Blood
EXTD=
EXTT0=
EXTT1=
EXTT2=
EXTT3=
EXTT4=
EXTT5=
EXTT6=
EXTT7=
EXTT8=
EXTT9=
EXTT10=
EXTT11=
EXTT12=
PLAYORDER=
